<?xml version="1.0" encoding="utf-8"?>
<!-- Uploaded to: SVG Repo, www.svgrepo.com, Generator: SVG Repo Mixer Tools -->
<svg width="800px" height="800px" viewBox="0 0 64 64" xmlns="http://www.w3.org/2000/svg">
<title>fishes</title>
<g id="fishes">
<path d="M19.4,27.471l1.1,7.339a.922.922,0,0,0,1.684.367l5.271-8.09" style="fill:none;stroke:#000000;stroke-linecap:round;stroke-linejoin:round;stroke-width:2px"/>
<path d="M17.927,12.946l-.52-7.4a.923.923,0,0,1,1.566-.724l6.544,6.408" style="fill:none;stroke:#000000;stroke-linecap:round;stroke-linejoin:round;stroke-width:2px"/>
<polyline points="31.224 11.033 26.984 18.503 31.632 26.5" style="fill:none;stroke:#000000;stroke-linecap:round;stroke-linejoin:round;stroke-width:2px"/>
<path d="M31.632,26.5c-2.644.316-5.93.546-10.012.741C5.513,28.008,7.738,40.817,7.738,40.817c8.283,1.84,9.894,4.371,7.9,6.825s-5.829.154-5.829.154.23,2.224-3.681,3.528S3.52,43.5,3.52,43.5.835,39.283,1.832,31.537C3.5,18.605,15.253,13.512,25.837,11.518a26.312,26.312,0,0,1,5.387-.485c7.273.145,11.36,3.957,10.8,9.151C41.618,23.9,39.42,25.57,31.632,26.5Z" style="fill:none;stroke:#000000;stroke-linecap:round;stroke-linejoin:round;stroke-width:2px"/>
<path d="M26.984,18.5s-6.7-.353-14.721,5.21c-9.584,6.646-4.525,17.1-4.525,17.1" style="fill:none;stroke:#000000;stroke-linecap:round;stroke-linejoin:round;stroke-width:2px"/>
<circle cx="33.918" cy="14.39" r="1"/>
<circle cx="33.942" cy="22.452" r="1"/>
<path d="M45.332,36.244,43.38,29.085a.922.922,0,0,0-1.716-.166L37.38,37.571" style="fill:none;stroke:#000000;stroke-linecap:round;stroke-linejoin:round;stroke-width:2px"/>
<path d="M48.5,50.5l1.385,7.291a.922.922,0,0,1-1.469.9l-7.263-5.6" style="fill:none;stroke:#000000;stroke-linecap:round;stroke-linejoin:round;stroke-width:2px"/>
<polyline points="35.516 53.958 38.849 46.042 33.295 38.645" style="fill:none;stroke:#000000;stroke-linecap:round;stroke-linejoin:round;stroke-width:2px"/>
<path d="M33.3,38.645c2.588-.624,5.825-1.238,9.856-1.911,15.9-2.654,12.191-15.112,12.191-15.112C46.9,20.767,45,18.443,46.7,15.771s5.77-.837,5.77-.837S51.976,12.752,55.707,11s3.509,7.463,3.509,7.463,3.161,3.873,3.081,11.683c-.134,13.038-11.212,19.476-21.488,22.7a26.341,26.341,0,0,1-5.293,1.114c-7.239.71-11.746-2.595-11.8-7.82C23.683,42.405,25.67,40.484,33.3,38.645Z" style="fill:none;stroke:#000000;stroke-linecap:round;stroke-linejoin:round;stroke-width:2px"/>
<path d="M38.849,46.042s6.694-.437,14.008-6.9c8.737-7.724,2.485-17.516,2.485-17.516" style="fill:none;stroke:#000000;stroke-linecap:round;stroke-linejoin:round;stroke-width:2px"/>
<circle cx="32.446" cy="50.941" r="1"/>
<circle cx="31.476" cy="42.937" r="1"/>
<circle cx="44.5" cy="5.5" r="2.5" style="fill:none;stroke:#000000;stroke-linecap:round;stroke-linejoin:round;stroke-width:2px"/>
<line x1="19.919" y1="55.586" x2="16.223" y2="59.281" style="fill:none;stroke:#000000;stroke-linecap:round;stroke-linejoin:round;stroke-width:2px"/>
<line x1="16.223" y1="55.586" x2="19.919" y2="59.281" style="fill:none;stroke:#000000;stroke-linecap:round;stroke-linejoin:round;stroke-width:2px"/>
<circle cx="53.5" cy="53.5" r="1.132"/>
</g>
</svg>